<svg xmlns="http://www.w3.org/2000/svg" width="1361px" height="609px" viewBox="0 0 1361 609"><g fill="none" fill-rule="evenodd"><g opacity="0.8" transform="rotate(-7 4291.342 278.88)"><ellipse cx="63.5748792" cy="32.468367" fill="#CFDAE6" opacity="0.25" rx="21.7830479" ry="21.766008"/><ellipse cx="5.98746479" cy="13.8668601" fill="#CFDAE6" opacity="0.599999964" rx="5.2173913" ry="5.21330997"/><path fill="#CFDAE6" d="M38.135 88.352c5.763 0 10.435-4.668 10.435-10.427 0-5.758-4.672-10.426-10.435-10.426-5.763 0-10.434 4.668-10.434 10.426 0 5.759 4.671 10.427 10.434 10.427Z" opacity="0.45"/><path stroke="#CFDAE6" stroke-linecap="round" stroke-linejoin="round" stroke-width="1.73913043" d="m64.278 33.17 54.908-16.605"/><path stroke="#E0B4B7" stroke-dasharray="1.405357899873153,2.108036953469981" stroke-linecap="round" stroke-linejoin="round" stroke-width="0.702678964" d="M42.143 26.5 7.712 14.564" opacity="0.7"/><path stroke="#BACAD9" stroke-dasharray="1.405357899873153,2.108036953469981" stroke-linecap="round" stroke-linejoin="round" stroke-width="0.702678964" d="M63.926 33.522 43.672 69.325"/><g fill="#CFDAE6" transform="rotate(30 60.031 230.21)"><ellipse cx="9.13482653" cy="9.12768076" opacity="0.45" rx="9.13482653" ry="9.12768076"/><path d="M0 9.128c0 5.04 4.09 9.127 9.135 9.127s9.135-4.086 9.135-9.127H0Z"/></g></g><g transform="rotate(-5 462.48 -1092.758)"><ellipse cx="29.1176471" cy="29.1402439" fill="#CFDAE6" opacity="0.25" rx="29.1176471" ry="29.1402439"/><ellipse cx="29.1176471" cy="29.1402439" fill="#CFDAE6" opacity="0.3" rx="21.5686275" ry="21.5853659"/><ellipse cx="179.019608" cy="138.146341" stroke="#CFDAE6" opacity="0.4" rx="23.7254902" ry="23.7439024"/><ellipse cx="29.1176471" cy="29.1402439" fill="#BACAD9" opacity="0.5" rx="10.7843137" ry="10.7926829"/><path fill="#BACAD9" d="M29.118 39.933V18.348c-5.956 0-10.785 4.832-10.785 10.792s4.829 10.793 10.785 10.793Z"/><g fill="#E6A1A6" opacity="0.45" transform="translate(172 131)"><ellipse cx="7.01960784" cy="7.14634146" rx="6.47058824" ry="6.47560976"/><path d="M7.02 13.622A6.474 6.474 0 0 1 .549 7.146 6.473 6.473 0 0 1 7.019.671v12.951Z"/></g><ellipse cx="218.382353" cy="138.685976" fill="#CFDAE6" rx="1.61764706" ry="1.61890244"/><ellipse cx="179.558824" cy="175.381098" fill="#E0B4B7" opacity="0.35" rx="1.61764706" ry="1.61890244"/><ellipse cx="180.098039" cy="102.530488" fill="#E0B4B7" opacity="0.35" rx="2.15686275" ry="2.15853659"/><path stroke="#CFDAE6" d="M28.999 29.967 171.15 132.876" opacity="0.8"/></g><g opacity="0.799999952" transform="rotate(-11 517.26 -5290.613)"><ellipse cx="43.8135593" cy="32" stroke="#CFDAE6" stroke-width="0.941176471" rx="11.1864407" ry="11.2941176"/><g fill="#BACAD9" transform="translate(34.597 23.111)"><ellipse cx="9.18534718" cy="8.88888889" opacity="0.45" rx="8.47457627" ry="8.55614973"/><path d="M9.185 17.445c4.68 0 8.475-3.83 8.475-8.556 0-4.726-3.794-8.556-8.475-8.556v17.112Z"/></g><path stroke="#CFDAE6" stroke-width="0.941176471" d="M34.66 24.81 5.717 4.769"/><ellipse cx="3.26271186" cy="3.29411765" stroke="#CFDAE6" stroke-width="0.941176471" rx="3.26271186" ry="3.29411765"/><ellipse cx="2.79661017" cy="61.1764706" fill="#F7E1AD" rx="2.79661017" ry="2.82352941"/><path stroke="#CFDAE6" stroke-width="0.941176471" d="M34.631 39.292 5.064 59.785"/></g><g opacity="0.33" transform="rotate(-10 2530.52 -6239.949)"><g fill="#BACAD9" transform="rotate(-85 127.141 -12.32)"><circle cx="11.6666667" cy="11.6666667" r="11.6666667" opacity="0.45"/><path d="M0 11.667c0 6.443 5.223 11.666 11.667 11.666 6.443 0 11.666-5.223 11.666-11.666H0Z"/></g><circle cx="201.833333" cy="87.5" r="5.83333333" fill="#CFDAE6"/><path stroke="#BACAD9" stroke-width="1.16666667" d="m143.5 88.813 11.57-71.21M17.5 37.333l109.966 60.312"/><path stroke="#CFDAE6" stroke-width="1.16666667" d="m143.903 120.302 31.032 111.27L38.5 147.51l87.867-36.678"/><path stroke="#E0B4B7" stroke-width="1.16666667" d="m159.833 99.745 35.584-10.495" opacity="0.6"/><path stroke="#BACAD9" stroke-width="1.16666667" d="m205.333 82.137 33.386-45.97"/><path stroke="#CFDAE6" stroke-width="1.16666667" d="m266.723 132.232-59.64-41.815"/><circle cx="156.916667" cy="8.75" r="8.75" fill="#C1D1E0"/><circle cx="39.0833333" cy="148.75" r="5.25" fill="#C1D1E0"/><circle cx="8.75" cy="33.25" r="8.75" fill="#D1DEED" fill-opacity="0.6"/><circle cx="243.833333" cy="30.3333333" r="5.83333333" fill="#D1DEED" fill-opacity="0.6"/><circle cx="175.583333" cy="232.75" r="5.25" fill="#E0B4B7"/></g></g></svg>